<?xml version="1.0" encoding="UTF-8" standalone="no"?>
<!-- Generator: Adobe Illustrator 22.0.1, SVG Export Plug-In . SVG Version: 6.00 Build 0)  -->

<svg
   version="1.1"
   id="Layer_1"
   x="0px"
   y="0px"
   viewBox="0 0 30 30"
   style="enable-background:new 0 0 30 30;"
   xml:space="preserve"
   sodipodi:docname="wi-day-sunny-overcast.svg"
   xmlns:inkscape="http://www.inkscape.org/namespaces/inkscape"
   xmlns:sodipodi="http://sodipodi.sourceforge.net/DTD/sodipodi-0.dtd"
   xmlns="http://www.w3.org/2000/svg"
   xmlns:svg="http://www.w3.org/2000/svg"><defs
   id="defs982"><linearGradient
     id="linearGradient3451"
     inkscape:swatch="solid"><stop
       style="stop-color:#000000;stop-opacity:1;"
       offset="0"
       id="stop3449" /></linearGradient></defs><sodipodi:namedview
   id="namedview980"
   pagecolor="#505050"
   bordercolor="#eeeeee"
   borderopacity="1"
   inkscape:pageshadow="0"
   inkscape:pageopacity="0"
   inkscape:pagecheckerboard="0"
   showgrid="false" />
<path
   d="m 3.09,13.43 c 0,0.27 0.09,0.49 0.28,0.67 0.19,0.18 0.43,0.26 0.72,0.26 h 1.69 c 0.27,0 0.5,-0.09 0.69,-0.27 0.19,-0.18 0.29,-0.4 0.29,-0.66 C 6.76,13.14 6.67,12.9 6.48,12.72 6.29,12.54 6.06,12.44 5.79,12.44 h -1.7 c -0.29,0 -0.53,0.09 -0.72,0.28 -0.19,0.17 -0.28,0.41 -0.28,0.71 z m 1.77,6.18 c 0,0.97 0.35,1.81 1.06,2.52 0.71,0.71 1.54,1.06 2.51,1.06 h 6.86 c 0.97,0 1.8,-0.35 2.49,-1.05 0.69,-0.7 1.04,-1.54 1.04,-2.53 0,-0.48 -0.07,-0.89 -0.21,-1.23 0.83,-0.53 1.49,-1.24 1.97,-2.12 0.48,-0.88 0.73,-1.83 0.73,-2.84 0,-0.81 -0.16,-1.59 -0.48,-2.33 C 20.51,10.35 20.08,9.71 19.55,9.18 19.02,8.65 18.38,8.22 17.64,7.9 16.9,7.58 16.13,7.42 15.32,7.42 c -1.09,0 -2.1,0.27 -3.02,0.81 -0.92,0.54 -1.65,1.27 -2.18,2.18 -0.53,0.92 -0.79,1.92 -0.79,3.01 v 0.34 c -1,0.57 -1.66,1.4 -1.98,2.49 -0.76,0.24 -1.36,0.66 -1.81,1.27 -0.45,0.61 -0.68,1.31 -0.68,2.09 z M 6.42,5.45 c 0,0.28 0.09,0.51 0.26,0.67 L 8.29,7.81 C 8.76,8.17 9.23,8.17 9.7,7.81 9.89,7.62 9.98,7.39 9.98,7.11 9.98,6.84 9.89,6.61 9.7,6.41 L 8.05,4.76 C 7.84,4.57 7.6,4.47 7.35,4.47 7.07,4.47 6.84,4.56 6.67,4.75 6.5,4.94 6.42,5.17 6.42,5.45 Z m 0.42,14.16 c 0,-0.42 0.13,-0.78 0.4,-1.08 0.27,-0.3 0.61,-0.47 1.02,-0.51 l 0.62,-0.08 c 0.13,0 0.2,-0.08 0.2,-0.23 l 0.09,-0.56 c 0.07,-0.58 0.31,-1.06 0.73,-1.44 0.42,-0.39 0.91,-0.58 1.48,-0.58 0.58,0 1.09,0.19 1.51,0.58 0.43,0.39 0.68,0.87 0.75,1.44 l 0.08,0.65 c 0.06,0.15 0.14,0.23 0.24,0.23 h 1.32 c 0.43,0 0.8,0.16 1.12,0.47 0.32,0.31 0.47,0.68 0.47,1.12 0,0.45 -0.16,0.83 -0.47,1.15 -0.31,0.32 -0.69,0.48 -1.12,0.48 H 8.43 C 7.98,21.25 7.6,21.09 7.3,20.77 6.99,20.45 6.84,20.06 6.84,19.61 Z m 4.42,-6.39 c 0.07,-1.09 0.49,-2.01 1.27,-2.76 0.77,-0.74 1.71,-1.12 2.79,-1.12 1.11,0 2.06,0.4 2.84,1.19 0.78,0.79 1.17,1.76 1.17,2.89 0,0.7 -0.17,1.35 -0.51,1.95 -0.34,0.6 -0.8,1.08 -1.38,1.45 C 16.85,16.33 16.17,16.09 15.41,16.09 15.12,15.21 14.6,14.52 13.87,14 13.14,13.48 12.31,13.22 11.39,13.22 Z m 3.09,-8.75 c 0,0.27 0.1,0.51 0.29,0.7 0.19,0.19 0.42,0.29 0.69,0.29 0.28,0 0.51,-0.1 0.7,-0.29 0.19,-0.19 0.29,-0.42 0.29,-0.7 V 2.13 c 0,-0.26 -0.1,-0.48 -0.29,-0.66 -0.19,-0.18 -0.42,-0.27 -0.7,-0.27 -0.27,0 -0.5,0.09 -0.69,0.27 -0.19,0.18 -0.29,0.4 -0.29,0.66 z m 6.32,15.23 c 0,0.27 0.09,0.5 0.27,0.7 l 1.64,1.62 c 0.42,0.42 0.89,0.42 1.41,0 0.18,-0.17 0.26,-0.39 0.26,-0.68 0,-0.27 -0.09,-0.49 -0.26,-0.67 L 22.3,19 c -0.18,-0.17 -0.41,-0.25 -0.68,-0.25 -0.28,0 -0.5,0.09 -0.68,0.27 -0.18,0.18 -0.27,0.41 -0.27,0.68 z m 0,-12.61 c 0,0.28 0.09,0.52 0.27,0.72 0.18,0.18 0.41,0.27 0.68,0.27 0.27,0 0.5,-0.09 0.68,-0.27 l 1.69,-1.69 c 0.18,-0.17 0.26,-0.39 0.26,-0.67 0,-0.28 -0.1,-0.51 -0.29,-0.69 -0.19,-0.18 -0.42,-0.28 -0.7,-0.28 -0.26,0 -0.49,0.1 -0.68,0.29 L 20.94,6.4 c -0.18,0.18 -0.27,0.41 -0.27,0.69 z m 2.58,6.34 c 0,0.27 0.09,0.49 0.28,0.67 0.19,0.18 0.43,0.26 0.72,0.26 h 1.69 c 0.27,0 0.5,-0.09 0.69,-0.27 0.19,-0.18 0.29,-0.4 0.29,-0.66 0,-0.29 -0.09,-0.53 -0.28,-0.71 -0.19,-0.18 -0.42,-0.28 -0.69,-0.28 h -1.69 c -0.29,0 -0.53,0.09 -0.72,0.28 -0.19,0.17 -0.29,0.41 -0.29,0.71 z"
   id="path977"
   style="display:none" />
<path
   style="fill:#ffff00;stroke:#ffff00;stroke-opacity:1"
   d="M 6.7241379,4.7660099 C 9.7,7.81 9.7,7.81 9.7,7.81"
   id="path1123" /></svg>
